<?xml version="1.0" encoding="UTF-8" standalone="no"?>
<!-- Created with Inkscape (http://www.inkscape.org/) -->

<svg
   xmlns:dc="http://purl.org/dc/elements/1.1/"
   xmlns:cc="http://creativecommons.org/ns#"
   xmlns:rdf="http://www.w3.org/1999/02/22-rdf-syntax-ns#"
   xmlns:svg="http://www.w3.org/2000/svg"
   xmlns="http://www.w3.org/2000/svg"
   xmlns:sodipodi="http://sodipodi.sourceforge.net/DTD/sodipodi-0.dtd"
   xmlns:inkscape="http://www.inkscape.org/namespaces/inkscape"
   width="9.18783mm"
   height="10.606028mm"
   viewBox="0 0 9.18783 10.606028"
   version="1.1"
   id="svg3736"
   inkscape:version="0.92.3 (2405546, 2018-03-11)"
   sodipodi:docname="daftsex.svg">
  <defs
     id="defs3730" />
  <sodipodi:namedview
     id="base"
     pagecolor="#ffffff"
     bordercolor="#666666"
     borderopacity="1.0"
     inkscape:pageopacity="0.0"
     inkscape:pageshadow="2"
     inkscape:zoom="0.98994949"
     inkscape:cx="110.91024"
     inkscape:cy="-61.597714"
     inkscape:document-units="mm"
     inkscape:current-layer="layer1"
     showgrid="false"
     fit-margin-top="0"
     fit-margin-left="0"
     fit-margin-right="0"
     fit-margin-bottom="0"
     inkscape:window-width="1366"
     inkscape:window-height="716"
     inkscape:window-x="0"
     inkscape:window-y="0"
     inkscape:window-maximized="1" />
  <metadata
     id="metadata3733">
    <rdf:RDF>
      <cc:Work
         rdf:about="">
        <dc:format>image/svg+xml</dc:format>
        <dc:type
           rdf:resource="http://purl.org/dc/dcmitype/StillImage" />
        <dc:title></dc:title>
      </cc:Work>
    </rdf:RDF>
  </metadata>
  <g
     inkscape:label="Layer 1"
     inkscape:groupmode="layer"
     id="layer1"
     transform="translate(-12.037037,-5.9469825)">
    <g
       style="fill:#dd3333;stroke:none"
       transform="matrix(0.00623884,0,0,-0.00623884,10.662207,16.846236)"
       id="g6">
      <path
         inkscape:connector-curvature="0"
         d="m 895,1713 c -142,-78 -362,-148 -559,-178 -54,-9 -102,-18 -107,-21 -14,-8 -10,-228 5,-354 C 270,876 344,659 469,468 579,301 749,148 911,70 l 46,-23 54,27 c 149,75 311,216 408,356 59,84 131,221 168,320 35,92 79,287 93,410 12,101 18,346 8,355 -2,2 -49,11 -104,19 -215,33 -424,99 -578,184 l -51,29 z M 910,895 V 259 l -45,31 c -128,88 -246,229 -327,390 -86,171 -148,427 -148,612 0,72 2,78 23,83 209,46 339,85 447,134 25,11 46,21 48,21 1,0 2,-286 2,-635 z m 197,592 c 99,-40 258,-87 343,-102 79,-14 74,-4 67,-133 -4,-63 -11,-120 -16,-125 -5,-5 -38,-6 -83,-1 l -73,9 3,46 3,45 -63,13 c -35,6 -75,14 -90,18 l -28,5 v -95 c 0,-81 3,-96 18,-102 9,-3 81,-9 160,-12 78,-3 142,-10 142,-15 0,-14 -39,-155 -61,-221 -35,-101 -118,-253 -188,-340 -65,-79 -226,-221 -242,-212 -8,5 -12,501 -5,514 3,4 43,2 90,-3 l 85,-9 3,-41 3,-41 37,65 c 59,105 64,96 -61,104 -61,3 -122,11 -136,16 l -25,10 v 325 c 0,179 2,325 4,325 2,0 53,-20 113,-43 z"
         id="path2" />
      <path
         inkscape:connector-curvature="0"
         d="m 628,1242 c -79,-19 -78,-15 -53,-153 18,-102 51,-201 98,-294 69,-137 66,-145 67,178 v 287 l -22,-1 c -13,-1 -53,-9 -90,-17 z"
         id="path4" />
    </g>
  </g>
</svg>
